# AST/ASF file generated using VICON BodyLanguage
# -----------------------------------------------
:version 1.10
:name VICON
:units
  mass 1.0
  length 0.45
  angle deg
:documentation
   .ast/.asf automatically generated from VICON data using
   VICON BodyBuilder and BodyLanguage model FoxedUp or BRILLIANT.MOD
:root
   order TX TY TZ RX RY RZ
   axis XYZ
   position 0 0 0  
   orientation 0 0 0 
:bonedata
  begin
     id 1 
     name lhipjoint
     direction 0.576517 -0.752066 0.319413 
     length 2.45433 
     axis 0 0 0  XYZ
  end
  begin
     id 2 
     name lfemur
     direction 0.34202 -0.939693 0  
     length 7.54459  
     axis 0 0 20  XYZ
    dof rx ry rz
    limits (-160.0 20.0)
           (-70.0 70.0)
           (-60.0 70.0)
  end
  begin
     id 3 
     name ltibia
     direction 0.34202 -0.939693 0   
     length 7.73986   
     axis 0 0 20   XYZ
    dof rx
    limits (-10.0 170.0)
  end
  begin
     id 4 
     name lfoot
     direction 0.090693 -0.249177 0.964202   
     length 2.28437   
     axis -90 7.62852e-016 20   XYZ
    dof rx rz
    limits (-45.0 90.0)
           (-70.0 20.0)
  end
  begin
     id 5 
     name ltoes
     direction 1.5356e-011 -4.21928e-011 1   
     length 1.14243   
     axis -90 7.62852e-016 20   XYZ
    dof rx
    limits (-90.0 20.0)
  end
  begin
     id 6 
     name rhipjoint
     direction -0.573937 -0.753736 0.320122   
     length 2.44889  
     axis 0 0 0  XYZ 
  end
  begin
     id 7 
     name rfemur
     direction -0.34202 -0.939693 0   
     length 7.50166   
     axis 0 0 -20   XYZ
    dof rx ry rz
    limits (-160.0 20.0)
           (-70.0 70.0)
           (-70.0 60.0)
  end
  begin
     id 8 
     name rtibia
     direction -0.34202 -0.939693 0   
     length 7.54266   
     axis 0 0 -20   XYZ
    dof rx
    limits (-10.0 170.0)
 end
 begin
     id 9 
     name rfoot
     direction -0.114017 -0.31326 0.942798   
     length 2.34212  
     axis -90 -7.62852e-016 -20   XYZ
    dof rx rz
    limits (-45.0 90.0)
           (-20.0 70.0)
  end
  begin
     id 10 
     name rtoes
     direction -1.53557e-011 -4.21867e-011 1   
     length 1.16246   
     axis -90 -7.62852e-016 -20   XYZ
    dof rx
    limits (-90.0 20.0)
  end
  begin
     id 11 
     name lowerback
     direction -0.0228371 0.999155 -0.034167   
     length 2.0537   
     axis 0 0 0   XYZ
    dof rx ry rz
    limits (-20.0 45.0)
           (-30.0 30.0)
           (-30.0 30.0)
  end
  begin
     id 12 
     name upperback
     direction 0.0198981 0.999794 0.00389455   
     length 2.05302   
     axis 0 0 0   XYZ
    dof rx ry rz
    limits (-20.0 45.0)
           (-30.0 30.0)
           (-30.0 30.0)
  end
  begin
     id 13 
     name thorax
     direction 0.0304566 0.99935 0.0192987   
     length 2.05315   
     axis 0 0 0   XYZ
    dof rx ry rz
    limits (-20.0 45.0)
           (-30.0 30.0)
           (-30.0 30.0)
  end
  begin
     id 14 
     name lowerneck
     direction -0.0196762 0.99417 0.106017   
     length 1.82056   
     axis 0 0 0   XYZ
    dof rx ry rz
    limits (-20.0 45.0)
           (-30.0 30.0)
           (-30.0 30.0)
  end
  begin
     id 15 
     name upperneck
     direction 0.00517787 0.9802 -0.197944   
     length 1.83835   
     axis 0 0 0   XYZ
    dof rx ry rz
    limits (-20.0 45.0)
           (-30.0 30.0)
           (-30.0 30.0)
  end
  begin
     id 16
     name head
     direction 0.00211419 0.996945 -0.078081  
     length 1.85629  
     axis 0 0 0   XYZ
    dof rx ry rz
    limits (-20.0 45.0)
           (-30.0 30.0)
           (-30.0 30.0)
  end
  begin
     id 17 
     name lclavicle
     direction 0.930001 0.365811 -0.0357824  
     length 3.81961  
     axis 0 0 0   XYZ
    dof ry rz
    limits (-20.0 10.0)
           (0.0 20.0)
  end
  begin
     id 18 
     name lhumerus
     direction 1 -4.48968e-011 -3.06644e-027   
     length 5.14507   
     axis 180 -30 -90   XYZ
    dof rx ry rz
    limits (-60.0 90.0)
           (-90.0 90.0)
           (-90.0 90.0)
  end
  begin
     id 19
     name lradius
     direction 1 -4.48965e-011 9.06925e-028   
     length 3.50646   
     axis 180 -30 -90   XYZ
    dof rx
    limits (-10.0 170.0)
  end
  begin
     id 20
     name lwrist
     direction 1 -4.48957e-011 1.03922e-027   
     length 1.75323   
     axis -2.56395e-016 90 90   XYZ
    dof ry
    limits (-180.0 0.0)
 end
  begin
     id 21 
     name lhand
     direction 1 -4.48967e-011 2.08017e-027   
     length 0.629969   
     axis -1.32723e-015 90 90   XYZ
    dof rx rz
    limits (-90.0 90.0)
           (-45.0 45.0)
  end
  begin
     id 22 
     name lfingers
     direction 1 -4.49089e-011 4.20095e-027   
     length 0.507897   
     axis -2.6545e-015 90 90   XYZ
    dof rx
    limits (0.0 90.0)
  end
  begin
     id 23
     name lthumb
     direction 0.707107 -6.35001e-011 0.707107   
     length 0.729241   
     axis -90 45 5.05613e-014   XYZ
    dof rx rz
    limits (-45.0 45.0)
           (-45.0 45.0)
  end
  begin
     id 24 
     name rclavicle
     direction -0.881882 0.464123 -0.0829113   
     length 3.47515  
     axis 0 0 0   XYZ 
    dof ry rz
    limits (-10.0 20.0)
           (-20.0 0.0)
  end
  begin
     id 25 
     name rhumerus
     direction -1 -4.48961e-011 -1.55672e-027  
     length 5.232   
     axis 180 30 90   XYZ
    dof rx ry rz
    limits (-90.0 60.0)
           (-90.0 90.0)
           (-90.0 90.0)
  end
  begin
     id 26 
     name rradius
     direction -1 -4.48963e-011 6.18178e-029   
     length 3.65641   
     axis 180 30 90   XYZ
    dof rx
    limits (-10.0 170.0)
  end
  begin
     id 27 
     name rwrist
     direction -1 -4.48982e-011 1.04136e-027   
     length 1.8282   
     axis -2.56395e-016 -90 -90   XYZ
    dof ry
    limits (-180.0 0.0)
  end
  begin
     id 28
     name rhand
     direction -1 -4.48929e-011 2.07378e-027   
     length 0.656807   
     axis -1.32723e-015 -90 -90   XYZ
    dof rx rz
    limits (-90.0 90.0)
           (-45.0 45.0)
  end
  begin
     id 29
     name rfingers
     direction -1 -4.489e-011 4.13816e-027   
     length 0.529535   
     axis -2.6545e-015 -90 -90   XYZ
    dof rx
    limits (0.0 90.0)
  end
  begin
     id 30
     name rthumb
     direction -0.707107 -6.34843e-011 0.707107   
     length 0.760309   
     axis -90 -45 -5.05613e-014   XYZ
    dof rx rz
    limits (-45.0 45.0)
           (-45.0 45.0)
  end
:hierarchy
  begin
    root lhipjoint rhipjoint lowerback
    lhipjoint lfemur
    lfemur ltibia
    ltibia lfoot
    lfoot ltoes
    rhipjoint rfemur
    rfemur rtibia
    rtibia rfoot
    rfoot rtoes
    lowerback upperback
    upperback thorax
    thorax lowerneck lclavicle rclavicle
    lowerneck upperneck
    upperneck head
    lclavicle lhumerus
    lhumerus lradius
    lradius lwrist
    lwrist lhand lthumb
    lhand lfingers
    rclavicle rhumerus
    rhumerus rradius
    rradius rwrist
    rwrist rhand rthumb
    rhand rfingers
  end

#!OML:ASF H:\ManfredETheater\Project 1\Capture day 1\Session 1\subject.ASF
:FULLY-SPECIFIED
:DEGREES
1
root 2.00958 15.6848 38.1397 -152.942 0.703186 -176.136
lowerback 18.7212 2.13497 2.20776
upperback 0.857364 3.59948 0.655473
thorax -9.48279 1.73301 -1.50799
lowerneck -13.3752 -4.31801 -5.57379
upperneck -7.56843 -5.85679 6.39855
head 0.231864 -3.18034 2.76423
rclavicle 4.85035e-014 -7.15625e-015
rhumerus -38.6699 10.8502 -86.8964
rradius 92.9125
rwrist -12.5457
rhand -22.5655 4.72341
rfingers 7.12502
rthumb 3.86268 -25.2213
lclavicle 4.85035e-014 -7.15625e-015
lhumerus -60.4729 -12.01 90.2904
lradius 97.8926
lwrist 14.4792
lhand -21.7776 -9.10365
lfingers 7.12502
lthumb 4.62352 20.8259
rfemur -6.9548 -4.71299 24.3753
rtibia 53.49
rfoot 19.9475 -9.62438
rtoes -12.2133
lfemur -66.734 3.34732 -23.4798
ltibia 66.1387
lfoot -23.4726 -11.5098
ltoes 18.3187
2
root 2.03038 15.6542 37.6579 -153.145 0.480619 -177.399
lowerback 18.9687 1.86315 1.29815
upperback 0.832382 2.99288 0.200541
thorax -9.68785 1.46393 -1.33948
lowerneck -13.6118 -4.26391 -5.2959
upperneck -7.67793 -5.84159 6.59821
head 0.233084 -3.19081 2.77833
rclavicle 1.2921e-014 -6.36111e-015
rhumerus -39.8311 9.36334 -88.1741
rradius 89.2382
rwrist -12.5703
rhand -22.7098 4.58426
rfingers 7.12502
rthumb 3.72335 -25.363
lclavicle 1.2921e-014 -6.36111e-015
lhumerus -58.3401 -12.1868 90.8931
lradius 96.3874
lwrist 15.6177
lhand -21.9599 -9.59976
lfingers 7.12502
lthumb 4.44747 20.3335
rfemur -9.72891 -5.80725 23.1751
rtibia 58.1493
rfoot 17.5445 -9.00578
rtoes -14.0386
lfemur -64.3356 2.59639 -24.8207
ltibia 66.1631
lfoot -25.2533 -11.1273
ltoes 22.4681
3
root 2.05078 15.6227 37.1762 -153.602 0.0842854 -179.116
lowerback 19.547 1.44365 0.105314
upperback 0.88326 2.13957 -0.305508
thorax -9.99679 1.10016 -1.00447
lowerneck -13.9273 -4.15368 -5.00637
upperneck -7.79954 -5.76343 6.72173
head 0.235901 -3.17435 2.76693
rclavicle -1.09332e-014 2.18663e-015
rhumerus -40.9016 7.71271 -89.1929
rradius 85.3978
rwrist -12.306
rhand -23.1584 5.03052
rfingers 7.12502
rthumb 3.29018 -24.9238
lclavicle -1.09332e-014 2.18663e-015
lhumerus -56.1207 -12.3574 91.4475
lradius 94.9951
lwrist 16.05
lhand -22.3584 -9.40944
lfingers 7.12502
lthumb 4.06271 20.5316
rfemur -12.3317 -7.07814 21.6
rtibia 62.9246
rfoot 14.6636 -8.59477
rtoes -15.6125
lfemur -61.7844 1.37926 -26.2928
ltibia 66.4359
lfoot -27.1324 -10.1917
ltoes 22.446
4
root 2.07225 15.5756 36.7044 -154.024 -0.355333 -181.004
lowerback 20.0903 1.31967 -1.17365
upperback 0.981616 1.13284 -0.757107
thorax -10.2195 0.46061 -0.463713
lowerneck -14.0562 -4.04008 -4.89477
upperneck -8.18819 -5.67532 6.89702
head 0.127042 -3.16334 2.8141
rclavicle -1.55052e-014 1.59028e-015
rhumerus -41.7049 6.09024 -89.7965
rradius 81.3895
rwrist -12.3154
rhand -23.9143 5.30519
rfingers 7.12502
rthumb 2.56009 -24.6592
lclavicle -1.55052e-014 1.59028e-015
lhumerus -53.7365 -12.5268 92.0335
lradius 93.6316
lwrist 16.0439
lhand -22.896 -9.31397
lfingers 7.12502
lthumb 3.54351 20.6363
rfemur -15.0926 -8.66249 19.7714
rtibia 67.5368
rfoot 12.2101 -8.15386
rtoes -16.6861
lfemur -59.3294 -0.108239 -27.7203
ltibia 66.6377
lfoot -28.5274 -9.59922
ltoes 22.4567
5
root 2.08465 15.567 36.2336 -153.964 -0.509445 -182.184
lowerback 20.2169 1.09027 -2.28288
upperback 0.912563 0.555552 -0.872172
thorax -10.3779 0.23728 0.204928
lowerneck -13.9139 -3.95636 -5.14575
upperneck -8.85276 -5.59044 7.08575
head -0.105849 -3.15809 2.94308
rclavicle 9.44227e-015 9.93923e-017
rhumerus -42.6698 4.67322 -89.5422
rradius 77.4471
rwrist -13.0004
rhand -25.2456 5.19635
rfingers 7.12502
rthumb 1.27435 -24.7796
lclavicle 9.44227e-015 9.93923e-017
lhumerus -51.0637 -12.5843 93.0539
lradius 93.0234
lwrist 15.4382
lhand -23.4235 -9.60926
lfingers 7.12502
lthumb 3.03412 20.3489
rfemur -19.1932 -9.34295 18.6115
rtibia 72.0446
rfoot 9.58768 -7.82475
rtoes -18.3442
lfemur -57.338 -1.09708 -28.3916
ltibia 66.7121
lfoot -29.7842 -9.97837
ltoes 21.6961
6
root 2.09904 15.5185 35.7719 -154.018 -0.827795 -183.376
lowerback 20.4653 0.798162 -3.19086
upperback 0.873645 -0.0889324 -1.092
thorax -10.5481 -0.0320017 0.66606
lowerneck -14.0194 -3.8909 -5.20118
upperneck -9.204 -5.53958 7.27465
head -0.199237 -3.16041 3.02498
rclavicle 5.46658e-016 1.5207e-014
rhumerus -43.6145 2.97976 -89.3628
rradius 73.6164
rwrist -13.437
rhand -25.9335 5.13987
rfingers 7.12502
rthumb 0.60993 -24.839
lclavicle 5.46658e-016 1.5207e-014
lhumerus -48.5548 -12.8164 93.806
lradius 92.3901
lwrist 15.4321
lhand -23.7576 -9.82845
lfingers 7.12502
lthumb 2.71151 20.1341
rfemur -22.7549 -10.3561 17.4807
rtibia 76.3861
rfoot 7.18344 -7.35223
rtoes -19.6483
lfemur -55.2443 -2.05641 -29.2576
ltibia 66.7827
lfoot -31.0949 -9.95505
ltoes 21.7079
7
root 2.11098 15.4683 35.313 -153.991 -1.1501 -184.352
lowerback 20.6373 0.520923 -3.91199
upperback 0.806377 -0.65884 -1.23198
thorax -10.696 -0.268642 1.08967
lowerneck -14.1634 -3.84876 -5.30819
upperneck -9.49046 -5.50864 7.46173
head -0.26263 -3.16812 3.1134
rclavicle -1.55052e-014 -1.47349e-014
rhumerus -44.608 1.29326 -88.8415
rradius 69.872
rwrist -13.9963
rhand -26.6007 5.01752
rfingers 7.12502
rthumb -0.0344275 -24.9622
lclavicle -1.55052e-014 -1.47349e-014
lhumerus -46.0141 -13.0777 94.5914
lradius 92.1835
lwrist 15.3579
lhand -24.0322 -10.0627
lfingers 7.12502
lthumb 2.44629 19.903
rfemur -26.562 -11.2554 16.594
rtibia 80.4964
rfoot 4.95194 -6.84522
rtoes -20.8436
lfemur -53.2266 -2.8713 -29.9119
ltibia 66.7645
lfoot -32.2893 -10.1092
ltoes 21.535
8
root 2.12076 15.4172 34.8552 -153.88 -1.45861 -185.087
lowerback 20.7066 0.263072 -4.42857
upperback 0.705055 -1.13683 -1.29839
thorax -10.82 -0.465051 1.45139
lowerneck -14.369 -3.83266 -5.43919
upperneck -9.67251 -5.50186 7.62824
head -0.280173 -3.1813 3.19517
rclavicle 6.33626e-016 -8.74653e-015
rhumerus -45.7028 -0.336399 -88.0146
rradius 66.2964
rwrist -14.5762
rhand -27.209 4.86911
rfingers 7.12502
rthumb -0.621966 -25.1097
lclavicle 6.33626e-016 -8.74653e-015
lhumerus -43.4735 -13.3615 95.4054
lradius 92.4646
lwrist 15.2275
lhand -24.204 -10.3154
lfingers 7.12502
lthumb 2.28033 19.6522
rfemur -30.6177 -12.0109 15.987
rtibia 84.3302
rfoot 2.93427 -6.33283
rtoes -21.9106
lfemur -51.2848 -3.49583 -30.3528
ltibia 66.6874
lfoot -33.42 -10.4406
ltoes 21.3936
9
root 2.12888 15.3672 34.3956 -153.722 -1.76009 -185.609
lowerback 20.6899 0.0180859 -4.7512
upperback 0.57595 -1.53455 -1.30715
thorax -10.9271 -0.627628 1.74177
lowerneck -14.6431 -3.83442 -5.55583
upperneck -9.72975 -5.51205 7.74512
head -0.246255 -3.19577 3.25268
rclavicle 2.36864e-014 1.55922e-015
rhumerus -46.9628 -1.84979 -86.9403
rradius 63.0089
rwrist -14.9977
rhand -27.736 4.7547
rfingers 7.12502
rthumb -1.13095 -25.222
lclavicle 2.36864e-014 1.55922e-015
lhumerus -40.9721 -13.6639 96.2422
lradius 93.2831
lwrist 15.0471
lhand -24.2777 -10.5122
lfingers 7.12502
lthumb 2.20913 19.4561
rfemur -34.8457 -12.6234 15.6398
rtibia 87.8324
rfoot 1.12491 -5.83437
rtoes -22.8536
lfemur -49.3367 -3.93309 -30.6084
ltibia 66.4869
lfoot -34.4749 -10.892
ltoes 21.261
10
root 2.13597 15.3202 33.9316 -153.544 -2.05116 -185.968
lowerback 20.6049 -0.215956 -4.92241
upperback 0.423929 -1.86786 -1.27433
thorax -11.024 -0.763325 1.97146
lowerneck -14.9857 -3.84262 -5.63258
upperneck -9.66406 -5.52805 7.78787
head -0.163716 -3.2067 3.27321
rclavicle 4.66477e-015 -1.09755e-014
rhumerus -48.4346 -3.17203 -85.6901
rradius 60.1357
rwrist -15.1052
rhand -28.1851 4.77617
rfingers 7.12502
rthumb -1.56471 -25.1978
lclavicle 4.66477e-015 -1.09755e-014
lhumerus -38.5473 -13.9948 97.0996
lradius 94.6486
lwrist 14.8548
lhand -24.2784 -10.6368
lfingers 7.12502
lthumb 2.2085 19.3315
rfemur -39.1806 -13.1057 15.4992
rtibia 90.9515
rfoot -0.481341 -5.36995
rtoes -23.7034
lfemur -47.3243 -4.2063 -30.7242
ltibia 66.1199
lfoot -35.4211 -11.4181
ltoes 21.1475
11
root 2.14281 15.279 33.4603 -153.375 -2.33608 -186.216
lowerback 20.4773 -0.442569 -4.99446
upperback 0.254261 -2.15791 -1.20793
thorax -11.1191 -0.880628 2.16778
lowerneck -15.3865 -3.84237 -5.65293
upperneck -9.4889 -5.5337 7.73464
head -0.04116 -3.20744 3.24766
rclavicle -3.42593e-015 8.41729e-016
rhumerus -50.1789 -4.20844 -84.3488
rradius 57.8359
rwrist -14.793
rhand -28.5774 4.99104
rfingers 7.12502
rthumb -1.94353 -24.9799
lclavicle -3.42593e-015 8.41729e-016
lhumerus -36.2302 -14.3788 97.9742
lradius 96.5452
lwrist 14.7204
lhand -24.2426 -10.6351
lfingers 7.12502
lthumb 2.24302 19.3328
rfemur -43.5393 -13.4771 15.5071
rtibia 93.633
rfoot -1.88329 -4.96506
rtoes -24.4602
lfemur -45.1806 -4.36651 -30.7362
ltibia 65.5336
lfoot -36.2376 -12.0006
ltoes 21.0508
12
root 2.14968 15.2466 32.9791 -153.208 -2.6068 -186.391
lowerback 20.2941 -0.662576 -5.01389
upperback 0.0658089 -2.41681 -1.10914
thorax -11.2049 -0.983452 2.35882
lowerneck -15.8142 -3.81761 -5.61943
upperneck -9.24578 -5.51034 7.58032
head 0.100959 -3.19137 3.17773
rclavicle 2.84976e-015 -7.02269e-015
rhumerus -52.2146 -4.87276 -83.0061
rradius 56.2304
rwrist -14.0919
rhand -28.9218 5.41449
rfingers 7.12502
rthumb -2.27619 -24.5531
lclavicle 2.84976e-015 -7.02269e-015
lhumerus -34.0416 -14.8614 98.8521
lradius 98.925
lwrist 14.7635
lhand -24.2066 -10.5288
lfingers 7.12502
lthumb 2.27781 19.4388
rfemur -47.8814 -13.7354 15.6185
rtibia 95.8321
rfoot -3.1285 -4.6492
rtoes -25.1615
lfemur -42.8861 -4.46719 -30.6677
ltibia 64.6729
lfoot -36.8698 -12.5899
ltoes 20.8568
13
root 2.15648 15.227 32.4851 -153.058 -2.86448 -186.521
lowerback 20.0749 -0.878703 -5.01745
upperback -0.134759 -2.6588 -0.972343
thorax -11.2825 -1.07701 2.5761
lowerneck -16.2599 -3.75382 -5.54175
upperneck -8.96677 -5.44033 7.32626
head 0.249627 -3.15222 3.06824
rclavicle 2.1388e-014 -6.53815e-015
rhumerus -54.5306 -5.10379 -81.7519
rradius 55.4016
rwrist -13.1351
rhand -29.2238 6.08598
rfingers 7.12502
rthumb -2.5679 -23.8783
lclavicle 2.1388e-014 -6.53815e-015
lhumerus -31.9853 -15.4856 99.7018
lradius 101.718
lwrist 15.0913
lhand -24.1868 -10.3618
lfingers 7.12502
lthumb 2.29694 19.6055
rfemur -52.1263 -13.8931 15.7913
rtibia 97.5025
rfoot -4.24415 -4.42733
rtoes -25.8518
lfemur -40.395 -4.56161 -30.534
ltibia 63.4845
lfoot -37.263 -13.1559
ltoes 20.4747
14
root 2.16316 15.2235 31.9762 -152.934 -3.12151 -186.617
lowerback 19.8323 -1.09822 -5.01813
upperback -0.340339 -2.89719 -0.789609
thorax -11.3485 -1.16712 2.83971
lowerneck -16.7089 -3.64058 -5.4366
upperneck -8.68 -5.30942 6.98978
head 0.393646 -3.08469 2.93061
rclavicle 1.42628e-014 -2.2736e-015
rhumerus -57.0879 -4.88256 -80.6654
rradius 55.3669
rwrist -12.1144
rhand -29.5069 6.85119
rfingers 7.12502
rthumb -2.84129 -23.1096
lclavicle 1.42628e-014 -2.2736e-015
lhumerus -30.0609 -16.2925 100.462
lradius 104.845
lwrist 15.779
lhand -24.1788 -10.1891
lfingers 7.12502
lthumb 2.30471 19.7782
rfemur -56.1841 -13.9612 16.0053
rtibia 98.615
rfoot -5.25796 -4.30255
rtoes -26.4556
lfemur -37.6913 -4.69906 -30.3376
ltibia 61.939
lfoot -37.3573 -13.6884
ltoes 19.8873
